<svg xmlns="http://www.w3.org/2000/svg" width="400" height="400"><defs><path d="M-1392.293 588.91c20.392-52.843 59.314-13.039 80 7.647 56.471 44.902 81.177 12.157 88.824-17.059M171.765 446.48c26.078 62.157 8.627 147.843-7.059 180.588M-1232.712 1107.613c235.148 210.107 618.089 100.382 733.445-37.393M429 309.431c131.281 148.819 63.221 385.194 5.819 488.726M-1289.081 847.62c-121.763-159.197-166.176-364.755-37.582-555.374M-1640.261 189.057c197.793-135.774 367.328-135.88 585.98 0" stroke="#000" fill="none"/></defs><text style="line-height:125%" x="100.363" y="759.794" font-size="74.05" letter-spacing="0" word-spacing="0" font-family="Sans" transform="translate(0 -652.362)"><tspan x="100.363" y="759.794" style="-inkscape-font-specification:Copperplate" font-size="148.1" font-family="Copperplate">?</tspan></text><path d="M102.798 370.432c0-.405 4.937-15.192 10.971-32.86s11.24-33.373 11.57-34.9c.33-1.527 1.192-3.223 1.916-3.767.724-.545 2.669-4.227 4.322-8.183l3.005-7.193-4.322 2.8c-2.377 1.54-6.541 3.346-9.253 4.013-5.617 1.382-10.793-3.629-19.46-18.84-2.705-4.747-8.112-13.516-12.016-19.487-3.904-5.971-7.098-12.932-7.098-15.469 0-2.68-1.884-6.096-4.495-8.149-2.472-1.944-9.209-10.264-14.972-18.487l-10.477-14.952 4.327-4.609c2.38-2.535 3.494-4.408 2.476-4.163-1.018.246-3.195-.148-4.838-.874-2.805-1.24-35.687 3.519-39.165 5.669-.881.544-2.06-.76-2.619-2.899-.606-2.316-2.515-3.889-4.719-3.889-2.79 0-3.464-.912-2.735-3.701.532-2.035.211-4.169-.715-4.74-2.625-1.623 1.731-8.22 5.427-8.22 1.797 0 4.059-.768 5.026-1.707.967-.939 11.755-2.154 23.974-2.7 12.218-.546 23.465-1.082 24.992-1.19 1.527-.108 5.276.325 8.331.961 3.055.637 7.373 1.525 9.596 1.975 2.223.45 4.57 2.482 5.216 4.516.646 2.034 2.367 3.698 3.826 3.698s2.652.882 2.652 1.96c0 1.078.962 1.366 2.137.639 1.256-.776 1.637-.512.925.641-.667 1.079.642 5.435 2.908 9.68s4.288 7.032 4.494 6.192c.206-.839.725-10.192 1.155-20.785 1.217-19.121 12.364-35.29 15.93-35.353 7.547 0 40.955-5.393 48.078-10.693 7.203-5.359-7.12-13.889-1.584-34.662 6.577-24.68 24.641-52.796 37.99-59.131 5.102-2.421 10.138-3.095 19.271-2.579 11.055.625 13.264 1.436 20.859 7.66 4.672 3.829 9.334 9.226 10.36 11.993 4.596 12.406 7.715 34.87 8.243 59.365l-10.208 23.484 15.874 6.791c11.431 4.89 16.842 26.666 14.219 40.497-.991 5.225-1.203 10.454-.471 11.619.732 1.166 1.6 4.202 1.93 6.748.948 7.315 4.162 18.512 5.313 18.512.577 0 .732-3.325.344-7.389s-.267-7.605.269-7.868c1.998-.983 11.155-14.191 11.155-16.091 0-1.086.972-1.975 2.16-1.975 1.188 0 1.693-.467 1.122-1.038-1-1 3.668-6.298 10.366-11.768 1.767-1.443 9.891-4.033 18.052-5.755 12.869-2.716 15.191-2.78 17.487-.484 1.456 1.456 2.648 3.421 2.648 4.367 0 .945 3.124 1.724 6.942 1.729 3.818.006 9.858.763 13.422 1.682 3.564.919 9.523 2.187 13.243 2.817 13.02 2.205 10.101 9.864-6.7 17.581-9.243 4.245-13.984 4.375-31.998.874-5.118-.995-6.017-.634-6.017 2.414 0 1.971-4.165 9.629-9.256 17.019-5.091 7.39-9.256 15.403-9.256 17.807 0 2.404-.89 4.921-1.977 5.593-1.088.672-1.534 2.377-.992 3.79.542 1.412.134 2.369-.908 2.127-1.041-.242-2.974 2.621-4.295 6.362-2.805 7.943-10.506 18.067-21.376 28.1-6.276 5.793-8.787 6.978-13.361 6.307-5.513-.809-5.613-.685-4.721 5.825.734 5.355 11.727 36.004 19.65 54.784.859 2.036 1.769 4.536 2.022 5.554.253 1.018 2.032 5.839 3.953 10.713 1.921 4.874 3.493 9.664 3.493 10.645 0 1.121-37.783 1.783-101.819 1.783-56 0-101.818-.332-101.818-.736z" fill="#e1e1e1" stroke="#000" stroke-width="7.405"/><g stroke="#000"><path d="M280.166 240.819c0 44.189-35.822 80.012-80.012 80.012-44.189 0-80.012-35.822-80.012-80.012 0-44.189 35.822-80.012 80.012-80.012 44.189 0 80.012 35.822 80.012 80.012z" fill="#f7931a"/><path d="M199.97 189.363l-3.731 13.923-19.619-5.257-2.713 10.126 9.493 2.544c-4.205 15.695-8.411 31.391-12.617 47.086l-9.493-2.544-2.747 10.253 19.619 5.257c-1.266 4.725-2.532 9.451-3.799 14.176l9.493 2.544c1.266-4.725 2.532-9.451 3.799-14.176l9.113 2.442c-1.266 4.726-2.532 9.451-3.799 14.176 3.207.859 6.413 1.718 9.62 2.578 1.175-4.75 2.35-9.5 3.526-14.25 8.655 1.368 19.17.246 24.593-7.534 6.399-9.077 1.652-23.053-8.584-26.959 6.21 1.023 11.162-4.622 13.43-9.779 3.221-6.672 1.78-15.642-4.636-19.897-2.014-2.079-7.439-1.683-6.009-4.879l3.287-12.266c-3.207-.859-6.413-1.718-9.62-2.578l-3.731 13.923-9.113-2.442 3.731-13.923-9.493-2.544zm7.705 27.523c4.257 1.102 9.814 3.403 9.788 8.594-.129 4.207-2.638 9.177-7.458 9.044-4.032.14-8.062-.638-11.344-2.302l4.369-16.305c1.772.315 2.905.509 4.645.969zm4.46 35.726c.83 5.134-.652 8.348-5.078 10.964-4.426 2.616-11.144 1.048-16.699-.368 1.896-7.075 3.792-14.15 5.687-21.225 5.919 1.558 15.005 5.482 16.09 10.629z" fill="#fff"/><path d="M255.698 255.702c-8.22 30.676-39.751 48.881-70.427 40.661-30.676-8.22-48.881-39.751-40.661-70.427 8.22-30.676 39.751-48.881 70.427-40.661 30.676 8.22 48.881 39.751 40.661 70.427z" fill="none"/><path d="M278.624 240.819c0 43.338-35.132 78.47-78.47 78.47s-78.47-35.132-78.47-78.47 35.132-78.47 78.47-78.47 78.47 35.132 78.47 78.47z" opacity=".451" fill="none"/></g><text y="761.561" x="-171.93" style="line-height:125%" transform="translate(0 -652.362) rotate(-15)" font-size="74.05" letter-spacing="0" word-spacing="0" font-family="Sans"><tspan style="-inkscape-font-specification:Copperplate" y="761.561" x="-171.93" font-size="148.1" font-family="Copperplate">?</tspan></text><text y="685.916" x="471.79" style="line-height:125%" transform="translate(0 -652.362) rotate(15)" font-size="74.05" letter-spacing="0" word-spacing="0" font-family="Sans"><tspan style="-inkscape-font-specification:Copperplate" y="685.916" x="471.79" font-size="148.1" font-family="Copperplate">?</tspan></text></svg>